<svg xmlns="http://www.w3.org/2000/svg" viewBox="0 0 750 356"><g data-name="Layer 2"><path d="M0 317V120l66-19v21h6v11l-6 3v15h6v10l-6 3v17h14v27h44v-27h-8v-8h8v-26h-6l-2-3v-7h26s1-24 8-34V89h-4v-6h19s7-15 31-20V53h-2v-4h22V35h-3l7-35 7 35h-3v14h22v4h-2v10c24 5 31 20 31 20h19v6h-4v14c7 10 8 34 8 34h26v7l-2 3h-6v26h8v8h-8v27h50V107h-5l-1-4v-6h6V79h-4l-2-3v-7h6l13-56 13 56h6v8l-2 2h-4v18h6v7l-2 3h-4v142h12v-14h18v-10h-2v-4h58v4h-2v24h16v36l20 13v2h-20v17h50v-44l-8-3v-10h8v-22l-6-1-2-3v-9h8v-20h-4l-4-4v-10h8v-20l-5-1-3-4v-9h48v-18h44v8h34v-24h-5v-4h95v237H0z" fill="#64147e" data-name="Layer 1"/></g></svg>